<svg xmlns="http://www.w3.org/2000/svg" viewBox="0 0 64 64" role="img" aria-label="Solara logo">
  <defs>
    <linearGradient id="outerGradient" x1="12" y1="4" x2="52" y2="60" gradientUnits="userSpaceOnUse">
      <stop offset="0" stop-color="#1f2a44" />
      <stop offset="1" stop-color="#0c1624" />
    </linearGradient>
    <linearGradient id="innerGradient" x1="20" y1="16" x2="44" y2="48" gradientUnits="userSpaceOnUse">
      <stop offset="0" stop-color="#f7fbff" />
      <stop offset="1" stop-color="#d9f6ff" />
    </linearGradient>
  </defs>
  <rect width="64" height="64" rx="14" fill="url(#outerGradient)" />
  <rect x="10" y="10" width="44" height="44" rx="12" fill="#ffffff" opacity="0.08" />
  <rect x="16" y="16" width="32" height="32" rx="10" fill="url(#innerGradient)" />
  <path fill="#0c1624" d="M40.8 22.8a4.4 4.4 0 0 0-4.4-4.4H29a7.6 7.6 0 0 0-7.6 7.6c0 2 1.6 3.6 3.6 3.6h8.2c1 0 1.8.8 1.8 1.8s-.8 1.8-1.8 1.8h-7.6a4.4 4.4 0 0 0-4.4 4.4v.4a7.6 7.6 0 0 0 7.6 7.6h7.6a7.6 7.6 0 0 0 7.6-7.6 3.6 3.6 0 0 0-3.6-3.6h-8.4a1.8 1.8 0 0 1-1.8-1.8c0-1 .8-1.8 1.8-1.8h7.6c4 0 7.2-3.2 7.2-7.2z" />
</svg>
